<svg xmlns="http://www.w3.org/2000/svg" width="24" height="24" viewBox="0 0 24 24" fill="none">
  <g clip-path="url(#clip0_2663_6947)">
    <path d="M22.8 12.8H22.4V4.40005C22.4 2.41485 20.7848 0.800049 18.8 0.800049C17.0248 0.800049 15.7552 2.11447 15.614 4.03925C14.6956 4.21967 14 5.02925 14 6.00003C14 6.22124 14.1792 6.40002 14.4 6.40002H17.6C17.8208 6.40002 18 6.22124 18 6.00003C18 5.04083 17.3208 4.23885 16.4184 4.04563C16.5348 2.77761 17.2832 1.60002 18.8 1.60002C20.344 1.60002 21.6 2.85641 21.6 4.4V12.8H9.55959C9.37359 11.8884 8.56561 11.2 7.59998 11.2H7.59159C7.21598 10.7008 6.62761 10.4 6 10.4C5.23959 10.4 4.56159 10.8392 4.22719 11.4896C3.91959 11.302 3.56559 11.2 3.19997 11.2C2.23439 11.2 1.42636 11.8884 1.24036 12.8H1.2C0.538406 12.8 0 13.3384 0 14C0 14.6616 0.538406 15.2 1.2 15.2H1.68759L2.75761 19.4788C3.06961 20.7276 4.18683 21.6 5.47402 21.6H5.75283L5.24203 22.6212C5.14322 22.8188 5.22361 23.0588 5.42123 23.158C5.47842 23.1864 5.53964 23.2 5.59964 23.2C5.74645 23.2 5.88764 23.1192 5.95805 22.9788L6.64725 21.6H17.7528L18.442 22.9788C18.5124 23.1192 18.6536 23.2 18.8004 23.2C18.8604 23.2 18.9217 23.1864 18.9788 23.158C19.1764 23.0588 19.2569 22.8188 19.158 22.6212L18.6425 21.5904C19.8793 21.5388 20.94 20.6896 21.2425 19.4788L22.3125 15.2H22.8C23.4616 15.2 24 14.6616 24 14C24 13.3385 23.4616 12.8 22.8 12.8ZM22.8 14.4H22H2.00002H1.2C0.979594 14.4 0.800016 14.2208 0.800016 14C0.800016 13.7793 0.979594 13.6001 1.2 13.6001H1.59998H9.19997H22.8C23.0204 13.6001 23.2 13.7793 23.2 14C23.2 14.2208 23.0204 14.4 22.8 14.4Z" fill="#305487" style="fill:#305487;fill:color(display-p3 0.1882 0.3294 0.5294);fill-opacity:1;"/>
    <path d="M14.4 8.20006C14.6208 8.20006 14.8 8.02128 14.8 7.80007V7.60006C14.8 7.37885 14.6208 7.20007 14.4 7.20007C14.1792 7.20007 14 7.37885 14 7.60006V7.80007C14 8.02128 14.1792 8.20006 14.4 8.20006Z" fill="#305487" style="fill:#305487;fill:color(display-p3 0.1882 0.3294 0.5294);fill-opacity:1;"/>
    <path d="M14.4 10.0286C14.6208 10.0286 14.8 9.84977 14.8 9.62857V9.17135C14.8 8.95057 14.6208 8.77136 14.4 8.77136C14.1792 8.77136 14 8.95057 14 9.17135V9.62857C14 9.84972 14.1792 10.0286 14.4 10.0286Z" fill="#305487" style="fill:#305487;fill:color(display-p3 0.1882 0.3294 0.5294);fill-opacity:1;"/>
    <path d="M14.4 11.6C14.6208 11.6 14.8 11.4212 14.8 11.2V11C14.8 10.7788 14.6208 10.6 14.4 10.6C14.1792 10.6 14 10.7788 14 11V11.2C14 11.4211 14.1792 11.6 14.4 11.6Z" fill="#305487" style="fill:#305487;fill:color(display-p3 0.1882 0.3294 0.5294);fill-opacity:1;"/>
    <path d="M16.0015 8.20006C16.2223 8.20006 16.4015 8.02128 16.4015 7.80007V7.60006C16.4015 7.37885 16.2223 7.20007 16.0015 7.20007C15.7808 7.20007 15.6016 7.37885 15.6016 7.60006V7.80007C15.6016 8.02128 15.7808 8.20006 16.0015 8.20006Z" fill="#305487" style="fill:#305487;fill:color(display-p3 0.1882 0.3294 0.5294);fill-opacity:1;"/>
    <path d="M15.6016 9.62857C15.6016 9.84977 15.7808 10.0285 16.0015 10.0285C16.2223 10.0285 16.4015 9.84977 16.4015 9.62857V9.17135C16.4015 8.95057 16.2223 8.77136 16.0015 8.77136C15.7808 8.77136 15.6016 8.95057 15.6016 9.17135V9.62857Z" fill="#305487" style="fill:#305487;fill:color(display-p3 0.1882 0.3294 0.5294);fill-opacity:1;"/>
    <path d="M15.6016 11.2C15.6016 11.4212 15.7808 11.6 16.0015 11.6C16.2223 11.6 16.4015 11.4212 16.4015 11.2V11C16.4015 10.7788 16.2223 10.6 16.0015 10.6C15.7808 10.6 15.6016 10.7788 15.6016 11V11.2Z" fill="#305487" style="fill:#305487;fill:color(display-p3 0.1882 0.3294 0.5294);fill-opacity:1;"/>
    <path d="M17.6031 8.20006C17.8239 8.20006 18.0031 8.02128 18.0031 7.80007V7.60006C18.0031 7.37885 17.8239 7.20007 17.6031 7.20007C17.3823 7.20007 17.2031 7.37885 17.2031 7.60006V7.80007C17.2031 8.02128 17.3823 8.20006 17.6031 8.20006Z" fill="#305487" style="fill:#305487;fill:color(display-p3 0.1882 0.3294 0.5294);fill-opacity:1;"/>
    <path d="M17.2031 9.62844C17.2031 9.84965 17.3823 10.0284 17.6031 10.0284C17.8239 10.0284 18.0031 9.84965 18.0031 9.62844V9.17122C18.0031 8.95044 17.8239 8.77124 17.6031 8.77124C17.3823 8.77124 17.2031 8.95044 17.2031 9.17122V9.62844Z" fill="#305487" style="fill:#305487;fill:color(display-p3 0.1882 0.3294 0.5294);fill-opacity:1;"/>
    <path d="M17.2031 11.2C17.2031 11.4212 17.3823 11.6 17.6031 11.6C17.8239 11.6 18.0031 11.4212 18.0031 11.2V11C18.0031 10.7788 17.8239 10.6 17.6031 10.6C17.3823 10.6 17.2031 10.7788 17.2031 11V11.2Z" fill="#305487" style="fill:#305487;fill:color(display-p3 0.1882 0.3294 0.5294);fill-opacity:1;"/>
  </g>
  <defs>
    <clipPath id="clip0_2663_6947">
      <rect width="24" height="24" fill="white" style="fill:white;fill-opacity:1;"/>
    </clipPath>
  </defs>
</svg>