<svg xmlns="http://www.w3.org/2000/svg" width="32" height="32" viewBox="0 0 32 32" fill="none">
  <g opacity="0.5">
    <path d="M2.66406 25.3334C2.66406 27.6 4.3974 29.3334 6.66406 29.3334H25.3307C27.5974 29.3334 29.3307 27.6 29.3307 25.3334V14.6667H2.66406V25.3334ZM25.3307 5.33335H22.6641V4.00002C22.6641 3.20002 22.1307 2.66669 21.3307 2.66669C20.5307 2.66669 19.9974 3.20002 19.9974 4.00002V5.33335H11.9974V4.00002C11.9974 3.20002 11.4641 2.66669 10.6641 2.66669C9.86406 2.66669 9.33073 3.20002 9.33073 4.00002V5.33335H6.66406C4.3974 5.33335 2.66406 7.06669 2.66406 9.33335V12H29.3307V9.33335C29.3307 7.06669 27.5974 5.33335 25.3307 5.33335Z" fill="#0F0F0F" style="fill:#0F0F0F;fill:color(display-p3 0.0596 0.0596 0.0596);fill-opacity:1;"/>
  </g>
</svg>