<svg width="20" height="20" viewBox="0 0 20 20" fill="none" xmlns="http://www.w3.org/2000/svg">
<g opacity="0.3">
<path d="M11.5625 16.25V17.5C11.5625 17.6719 11.4219 17.8125 11.25 17.8125H4.375C4.20312 17.8125 4.0625 17.6719 4.0625 17.5V16.25C4.0625 16.0781 4.20312 15.9375 4.375 15.9375H11.25C11.4219 15.9375 11.5625 16.0781 11.5625 16.25ZM17.5375 12.9906L13.4563 9.59063L13.8781 9.16875C14 9.29063 14.1594 9.35 14.3188 9.35C14.4781 9.35 14.6375 9.2875 14.7594 9.16875L15.2031 8.725C15.4469 8.48125 15.4469 8.08437 15.2031 7.84062L12.1094 4.74687C11.9906 4.62812 11.8344 4.5625 11.6687 4.5625C11.5031 4.5625 11.3438 4.62812 11.2281 4.74687L10.7875 5.1875C10.5437 5.43125 10.5437 5.82812 10.7875 6.07188L8.57812 8.28125C8.34375 8.04375 7.93125 8.04375 7.69375 8.28125L7.25312 8.72188C7.13437 8.84062 7.06875 8.99687 7.06875 9.16563C7.06875 9.33125 7.13437 9.49062 7.25312 9.60625L10.3469 12.7C10.4688 12.8219 10.6281 12.8813 10.7875 12.8813C10.9469 12.8813 11.1062 12.8187 11.2281 12.7L11.6687 12.2563C11.9125 12.0125 11.9125 11.6156 11.6687 11.3719L12.0906 10.95L15.4906 15.0312C15.75 15.3438 16.1344 15.5344 16.5406 15.5531H16.6062C16.9906 15.5531 17.3625 15.4 17.6344 15.1281C17.9219 14.8406 18.0781 14.4406 18.0594 14.0344C18.0406 13.6281 17.85 13.2437 17.5375 12.9844V12.9906ZM12.3875 12.2906L14.0625 14.3V15.625C14.0625 16.1406 13.6406 16.5625 13.125 16.5625H12.1875V16.25C12.1875 15.7344 11.7656 15.3125 11.25 15.3125H4.375C3.85938 15.3125 3.4375 15.7344 3.4375 16.25V16.5625H3.125C2.60938 16.5625 2.1875 16.1406 2.1875 15.625V3.125C2.1875 2.60938 2.60938 2.1875 3.125 2.1875H13.125C13.6406 2.1875 14.0625 2.60938 14.0625 3.125V5.81875L12.5531 4.30938C12.3187 4.07187 12.0031 3.94375 11.6687 3.94375C11.3344 3.94375 11.0219 4.07187 10.7844 4.30938L10.3438 4.75C10.1094 4.9875 9.97813 5.3 9.97813 5.63438C9.97813 5.74375 9.99688 5.85 10.025 5.95312L8.45 7.52812C8.34688 7.50313 8.24375 7.48438 8.13438 7.48438C7.80313 7.48438 7.47813 7.61562 7.25 7.84375L6.80938 8.28438C6.57188 8.52187 6.44063 8.8375 6.44375 9.17188C6.44375 9.50625 6.57188 9.81875 6.80938 10.0531L9.90313 13.1469C10.1375 13.3844 10.4531 13.5125 10.7844 13.5125C11.1156 13.5125 11.4344 13.3844 11.6687 13.1469L12.1125 12.7063C12.2312 12.5844 12.325 12.4438 12.3875 12.2906ZM3.125 3.75C3.125 3.92188 3.26562 4.0625 3.4375 4.0625H5.3125C5.48438 4.0625 5.625 3.92188 5.625 3.75C5.625 3.57812 5.48438 3.4375 5.3125 3.4375H3.4375C3.26562 3.4375 3.125 3.57812 3.125 3.75ZM6.25 13.75C6.25 13.5781 6.10938 13.4375 5.9375 13.4375H3.4375C3.26562 13.4375 3.125 13.5781 3.125 13.75C3.125 13.9219 3.26562 14.0625 3.4375 14.0625H5.9375C6.10938 14.0625 6.25 13.9219 6.25 13.75ZM3.4375 12.8125H5.3125C5.48438 12.8125 5.625 12.6719 5.625 12.5C5.625 12.3281 5.48438 12.1875 5.3125 12.1875H3.4375C3.26562 12.1875 3.125 12.3281 3.125 12.5C3.125 12.6719 3.26562 12.8125 3.4375 12.8125ZM6.25 5C6.25 4.82812 6.10938 4.6875 5.9375 4.6875H3.4375C3.26562 4.6875 3.125 4.82812 3.125 5C3.125 5.17188 3.26562 5.3125 3.4375 5.3125H5.9375C6.10938 5.3125 6.25 5.17188 6.25 5Z" fill="#0F0F0F" style="fill:#0F0F0F;fill:color(display-p3 0.0596 0.0596 0.0596);fill-opacity:1;"/>
</g>
</svg>
