<svg xmlns="http://www.w3.org/2000/svg" width="32" height="32" viewBox="0 0 32 32" fill="none">
  <g opacity="0.5" clip-path="url(#clip0_1158_9695)">
    <path d="M16 5.625C15.4827 5.625 15.0625 6.04525 15.0625 6.5625C15.0625 7.07975 15.4827 7.5 16 7.5C16.5173 7.5 16.9375 7.07975 16.9375 6.5625C16.9375 6.04525 16.5173 5.625 16 5.625Z" fill="#0F0F0F" style="fill:#0F0F0F;fill:color(display-p3 0.0596 0.0596 0.0596);fill-opacity:1;"/>
    <path d="M31.4818 7.5991L16.4193 0.0991035C16.1556 -0.032709 15.8444 -0.032709 15.5807 0.0991035L0.518188 7.5991C0.2005 7.75842 0 8.08248 0 8.43773V10.3127C0 10.8309 0.419312 11.2502 0.9375 11.2502C11.2546 11.2502 20.3902 11.2502 31.0625 11.2502C31.5807 11.2502 32 10.8309 32 10.3127V8.43773C32 8.08248 31.7995 7.75842 31.4818 7.5991ZM16 9.37523C14.4491 9.37523 13.1875 8.1136 13.1875 6.56273C13.1875 5.01185 14.4491 3.75023 16 3.75023C17.5509 3.75023 18.8125 5.01185 18.8125 6.56273C18.8125 8.1136 17.5509 9.37523 16 9.37523Z" fill="#0F0F0F" style="fill:#0F0F0F;fill:color(display-p3 0.0596 0.0596 0.0596);fill-opacity:1;"/>
    <path d="M24.4375 22.625H7.5625V24.5H24.4375V22.625Z" fill="#0F0F0F" style="fill:#0F0F0F;fill:color(display-p3 0.0596 0.0596 0.0596);fill-opacity:1;"/>
    <path d="M24.4375 26.375H7.5625V28.25H24.4375V26.375Z" fill="#0F0F0F" style="fill:#0F0F0F;fill:color(display-p3 0.0596 0.0596 0.0596);fill-opacity:1;"/>
    <path d="M23.5 18.875H8.5C7.98275 18.875 7.5625 19.2952 7.5625 19.8125V20.75H24.4375V19.8125C24.4375 19.2952 24.0173 18.875 23.5 18.875Z" fill="#0F0F0F" style="fill:#0F0F0F;fill:color(display-p3 0.0596 0.0596 0.0596);fill-opacity:1;"/>
    <path d="M1.875 13.125V31.0625C1.875 31.5807 2.29431 32 2.8125 32H5.6875C5.6875 26.5404 5.6875 24.3619 5.6875 19.8125C5.6875 18.2616 6.94913 17 8.5 17H23.5C25.0509 17 26.3125 18.2616 26.3125 19.8125C26.3125 20.7354 26.3125 21.4268 26.3125 21.9586C26.3125 22.994 26.3125 23.3836 26.3125 23.4135C26.3125 24.8158 26.3125 27.4142 26.3125 32H29.125C29.6432 32 30.0625 31.5807 30.0625 31.0625V13.125H1.875Z" fill="#0F0F0F" style="fill:#0F0F0F;fill:color(display-p3 0.0596 0.0596 0.0596);fill-opacity:1;"/>
    <path d="M24.4375 30.125H7.5625V32H24.4375V30.125Z" fill="#0F0F0F" style="fill:#0F0F0F;fill:color(display-p3 0.0596 0.0596 0.0596);fill-opacity:1;"/>
  </g>
  <defs>
    <clipPath id="clip0_1158_9695">
      <rect width="32" height="32" fill="white" style="fill:white;fill-opacity:1;"/>
    </clipPath>
  </defs>
</svg>