<svg width="1031" height="416" viewBox="0 0 1031 416" fill="none" xmlns="http://www.w3.org/2000/svg">
<path d="M902.629 383.777L899.758 330.67L780.782 333.762L777.883 280.139L876.528 88.4795L956.668 86.3953L966.981 277.087L1012.78 275.895L1015.58 327.657L969.779 328.848L972.653 381.956L902.629 383.777ZM896.957 278.908L891.661 181.004L851.727 280.084L896.957 278.908Z" fill="#0288D1" style="fill:#0288D1;fill:color(display-p3 0.0078 0.5333 0.8196);fill-opacity:1;"/>
<path d="M917.082 369.854L914.211 316.746L795.235 319.839L792.336 266.215L890.981 74.5557L971.121 72.4716L981.434 263.163L1027.23 261.972L1030.03 313.733L984.232 314.925L987.106 368.035L917.082 369.854ZM911.41 264.984L906.114 167.08L866.18 266.161L911.41 264.984Z" fill="#305487" style="fill:#305487;fill:color(display-p3 0.1882 0.3294 0.5294);fill-opacity:1;"/>
<path d="M1030.03 313.733L1015.58 327.657L984.963 328.454L984.23 314.925L1030.03 313.733Z" fill="#26436C" style="fill:#26436C;fill:color(display-p3 0.1490 0.2627 0.4235);fill-opacity:1;"/>
<path d="M987.106 368.033L972.657 381.956L902.633 383.777L917.083 369.854L987.106 368.033Z" fill="#26436C" style="fill:#26436C;fill:color(display-p3 0.1490 0.2627 0.4235);fill-opacity:1;"/>
<path d="M917.089 369.854L914.218 316.746L899.766 330.67L902.639 383.777L917.089 369.854Z" fill="#26436C" style="fill:#26436C;fill:color(display-p3 0.1490 0.2627 0.4235);fill-opacity:1;"/>
<path d="M780.785 333.762L795.238 319.839L914.214 316.746L899.761 330.67L780.785 333.762Z" fill="#26436C" style="fill:#26436C;fill:color(display-p3 0.1490 0.2627 0.4235);fill-opacity:1;"/>
<path d="M780.785 333.762L795.238 319.839L914.214 316.746L899.761 330.67L780.785 333.762Z" fill="black" fill-opacity="0.2" style="fill:black;fill-opacity:0.2;"/>
<path d="M777.883 280.139L792.335 266.215L795.235 319.839L780.782 333.762L777.883 280.139Z" fill="#26436C" style="fill:#26436C;fill:color(display-p3 0.1490 0.2627 0.4235);fill-opacity:1;"/>
<path d="M777.883 280.139L792.335 266.215L795.235 319.839L780.782 333.762L777.883 280.139Z" fill="black" fill-opacity="0.2" style="fill:black;fill-opacity:0.2;"/>
<path d="M876.528 88.4795L890.98 74.5557L792.335 266.215L777.883 280.139L876.528 88.4795Z" fill="#305487" style="fill:#305487;fill:color(display-p3 0.1882 0.3294 0.5294);fill-opacity:1;"/>
<path d="M876.528 88.4795L890.98 74.5557L792.335 266.215L777.883 280.139L876.528 88.4795Z" fill="black" fill-opacity="0.2" style="fill:black;fill-opacity:0.2;"/>
<path d="M906.116 167.08L911.412 264.984L896.229 265.379L892.711 200.336L906.116 167.08Z" fill="url(#paint0_linear_502_970)" style=""/>
<path d="M792.336 266.215L795.235 319.839L796.86 319.795L793.602 263.752L792.336 266.215Z" fill="#E3A82A" style="fill:#E3A82A;fill:color(display-p3 0.8902 0.6588 0.1647);fill-opacity:1;"/>
<path d="M914.215 316.746L917.086 369.854H918.388L915.272 316.746H914.215Z" fill="#E3A82A" style="fill:#E3A82A;fill:color(display-p3 0.8902 0.6588 0.1647);fill-opacity:1;"/>
<path d="M890.981 74.5559L792.336 266.215L793.801 267.167L891.971 74.5301L890.981 74.5559Z" fill="#E3A82A" style="fill:#E3A82A;fill:color(display-p3 0.8902 0.6588 0.1647);fill-opacity:1;"/>
<path d="M123.152 395.16L128.794 342.275L10.8494 326.338L16.546 272.939L144.517 99.4816L223.962 110.215L203.707 300.108L249.108 306.242L243.609 357.786L198.208 351.653L192.568 404.538L123.152 395.16ZM134.29 290.73L144.689 193.235L89.4518 284.672L134.29 290.73Z" fill="#0288D1" style="fill:#0288D1;fill:color(display-p3 0.0078 0.5333 0.8196);fill-opacity:1;"/>
<path d="M139.636 383.721L145.278 330.836L27.3338 314.9L33.0304 261.501L161.001 88.043L240.446 98.7765L220.191 288.67L265.592 294.803L260.093 346.347L214.692 340.214L209.052 393.102L139.636 383.721ZM150.774 279.291L161.173 181.796L105.936 273.233L150.774 279.291Z" fill="#305487" style="fill:#305487;fill:color(display-p3 0.1882 0.3294 0.5294);fill-opacity:1;"/>
<path d="M260.096 346.347L243.606 357.786L213.256 353.686L214.693 340.214L260.096 346.347Z" fill="#26436C" style="fill:#26436C;fill:color(display-p3 0.1490 0.2627 0.4235);fill-opacity:1;"/>
<path d="M209.055 393.1L192.568 404.539L123.151 395.16L139.638 383.721L209.055 393.1Z" fill="#26436C" style="fill:#26436C;fill:color(display-p3 0.1490 0.2627 0.4235);fill-opacity:1;"/>
<path d="M139.641 383.722L145.283 330.837L128.793 342.275L123.154 395.161L139.641 383.722Z" fill="#26436C" style="fill:#26436C;fill:color(display-p3 0.1490 0.2627 0.4235);fill-opacity:1;"/>
<path d="M10.8466 326.339L27.3361 314.9L145.281 330.836L128.791 342.275L10.8466 326.339Z" fill="#26436C" style="fill:#26436C;fill:color(display-p3 0.1490 0.2627 0.4235);fill-opacity:1;"/>
<path d="M10.8466 326.339L27.3361 314.9L145.281 330.836L128.791 342.275L10.8466 326.339Z" fill="black" fill-opacity="0.2" style="fill:black;fill-opacity:0.2;"/>
<path d="M16.5433 272.939L33.0329 261.501L27.3363 314.9L10.8467 326.338L16.5433 272.939Z" fill="#26436C" style="fill:#26436C;fill:color(display-p3 0.1490 0.2627 0.4235);fill-opacity:1;"/>
<path d="M16.5433 272.939L33.0329 261.501L27.3363 314.9L10.8467 326.338L16.5433 272.939Z" fill="black" fill-opacity="0.2" style="fill:black;fill-opacity:0.2;"/>
<path d="M144.514 99.4816L161.003 88.0431L33.0326 261.501L16.5431 272.939L144.514 99.4816Z" fill="#305487" style="fill:#305487;fill:color(display-p3 0.1882 0.3294 0.5294);fill-opacity:1;"/>
<path d="M144.514 99.4816L161.003 88.0431L33.0326 261.501L16.5431 272.939L144.514 99.4816Z" fill="black" fill-opacity="0.2" style="fill:black;fill-opacity:0.2;"/>
<path d="M161.175 181.796L150.776 279.291L135.725 277.258L142.633 212.487L161.175 181.796Z" fill="url(#paint1_linear_502_970)" style=""/>
<path d="M33.0404 261.501L27.3438 314.9L28.955 315.116L34.6838 259.271L33.0404 261.501Z" fill="#E3A82A" style="fill:#E3A82A;fill:color(display-p3 0.8902 0.6588 0.1647);fill-opacity:1;"/>
<path d="M145.285 330.836L139.643 383.721L140.929 383.929L146.329 331.005L145.285 330.836Z" fill="#E3A82A" style="fill:#E3A82A;fill:color(display-p3 0.8902 0.6588 0.1647);fill-opacity:1;"/>
<path d="M161.009 88.043L33.0386 261.501L34.333 262.674L161.991 88.1757L161.009 88.043Z" fill="#E3A82A" style="fill:#E3A82A;fill:color(display-p3 0.8902 0.6588 0.1647);fill-opacity:1;"/>
<path d="M521.158 397.459C656.137 397.459 765.559 343.453 765.559 276.834C765.559 210.215 656.137 156.21 521.158 156.21C386.18 156.21 276.758 210.215 276.758 276.834C276.758 343.453 386.18 397.459 521.158 397.459Z" fill="url(#paint2_linear_502_970)" style=""/>
<mask id="mask0_502_970" style="mask-type:luminance" maskUnits="userSpaceOnUse" x="276" y="0" width="490" height="398">
<path d="M276.758 0V276.834C276.758 343.453 386.18 397.456 521.158 397.456C656.137 397.456 765.559 343.451 765.559 276.834V0H276.758Z" fill="white" style="fill:white;fill-opacity:1;"/>
</mask>
<g mask="url(#mask0_502_970)">
<path d="M479.494 430.22L470.902 426.028L552.343 20.3388C552.936 17.375 556.173 15.7732 558.892 17.099L558.91 17.1068C560.795 18.0276 561.822 20.104 561.412 22.1598L479.494 430.22Z" fill="url(#paint3_linear_502_970)" style=""/>
<path d="M541.926 85.8382L541.929 85.8227C542.579 82.5803 546.12 80.8315 549.089 82.2863L684.406 148.567L682.355 158.808L544.653 91.3556C542.597 90.3496 541.478 88.0823 541.926 85.8382Z" fill="url(#paint4_linear_502_970)" style=""/>
<path d="M525.508 164.645L525.513 164.624C526.163 161.384 529.697 159.635 532.666 161.083L668.607 227.397L666.556 237.637L528.242 170.165C526.181 169.161 525.059 166.891 525.508 164.645Z" fill="url(#paint5_linear_502_970)" style=""/>
<path d="M509.641 243.255L509.646 243.235C510.296 239.995 513.83 238.246 516.799 239.693L652.817 306.229L650.767 316.47L512.375 248.775C510.314 247.769 509.192 245.502 509.641 243.255Z" fill="url(#paint6_linear_502_970)" style=""/>
<path d="M493.848 322.085L493.853 322.065C494.503 318.825 498.037 317.076 501.006 318.523L637.024 385.059L634.974 395.3L496.582 327.608C494.521 326.602 493.399 324.332 493.848 322.085Z" fill="url(#paint7_linear_502_970)" style=""/>
<path d="M477.97 401.029L477.975 401.008C478.625 397.768 482.159 396.019 485.128 397.466L621.146 464.003L619.096 474.243L480.704 406.549C478.643 405.543 477.519 403.275 477.97 401.029Z" fill="url(#paint8_linear_502_970)" style=""/>
<path d="M617.018 484.473L608.426 480.281L687.452 86.2559C688.045 83.2921 691.282 81.6903 693.998 83.0162L694.016 83.0239C695.902 83.9448 696.928 86.0212 696.518 88.077L617.018 484.473Z" fill="url(#paint9_linear_502_970)" style=""/>
</g>
<defs>
<linearGradient id="paint0_linear_502_970" x1="910.376" y1="226.245" x2="895.247" y2="227.621" gradientUnits="userSpaceOnUse">
<stop stop-color="#305487" style="stop-color:#305487;stop-color:color(display-p3 0.1882 0.3294 0.5294);stop-opacity:1;"/>
<stop offset="1" stop-color="#213D66" style="stop-color:#213D66;stop-color:color(display-p3 0.1277 0.2405 0.4004);stop-opacity:1;"/>
</linearGradient>
<linearGradient id="paint1_linear_502_970" x1="155.936" y1="240.883" x2="140.782" y2="239.827" gradientUnits="userSpaceOnUse">
<stop stop-color="#305487" style="stop-color:#305487;stop-color:color(display-p3 0.1882 0.3294 0.5294);stop-opacity:1;"/>
<stop offset="1" stop-color="#213D66" style="stop-color:#213D66;stop-color:color(display-p3 0.1277 0.2405 0.4004);stop-opacity:1;"/>
</linearGradient>
<linearGradient id="paint2_linear_502_970" x1="521.158" y1="156.21" x2="521.158" y2="397.459" gradientUnits="userSpaceOnUse">
<stop stop-color="#305487" style="stop-color:#305487;stop-color:color(display-p3 0.1882 0.3294 0.5294);stop-opacity:1;"/>
<stop offset="1" stop-color="#0C1521" style="stop-color:#0C1521;stop-color:color(display-p3 0.0460 0.0805 0.1294);stop-opacity:1;"/>
</linearGradient>
<linearGradient id="paint3_linear_502_970" x1="511.654" y1="222.104" x2="520.812" y2="223.897" gradientUnits="userSpaceOnUse">
<stop stop-color="#F5F5F5" style="stop-color:#F5F5F5;stop-color:color(display-p3 0.9608 0.9608 0.9608);stop-opacity:1;"/>
<stop offset="1" stop-color="#BDBDBD" style="stop-color:#BDBDBD;stop-color:color(display-p3 0.7412 0.7412 0.7412);stop-opacity:1;"/>
</linearGradient>
<linearGradient id="paint4_linear_502_970" x1="615.341" y1="115.158" x2="611.194" y2="124.226" gradientUnits="userSpaceOnUse">
<stop stop-color="#F5F5F5" style="stop-color:#F5F5F5;stop-color:color(display-p3 0.9608 0.9608 0.9608);stop-opacity:1;"/>
<stop offset="1" stop-color="#BDBDBD" style="stop-color:#BDBDBD;stop-color:color(display-p3 0.7412 0.7412 0.7412);stop-opacity:1;"/>
</linearGradient>
<linearGradient id="paint5_linear_502_970" x1="599.531" y1="193.887" x2="595.04" y2="202.94" gradientUnits="userSpaceOnUse">
<stop stop-color="#F5F5F5" style="stop-color:#F5F5F5;stop-color:color(display-p3 0.9608 0.9608 0.9608);stop-opacity:1;"/>
<stop offset="1" stop-color="#BDBDBD" style="stop-color:#BDBDBD;stop-color:color(display-p3 0.7412 0.7412 0.7412);stop-opacity:1;"/>
</linearGradient>
<linearGradient id="paint6_linear_502_970" x1="583.743" y1="272.45" x2="579.301" y2="281.501" gradientUnits="userSpaceOnUse">
<stop stop-color="#F5F5F5" style="stop-color:#F5F5F5;stop-color:color(display-p3 0.9608 0.9608 0.9608);stop-opacity:1;"/>
<stop offset="1" stop-color="#BDBDBD" style="stop-color:#BDBDBD;stop-color:color(display-p3 0.7412 0.7412 0.7412);stop-opacity:1;"/>
</linearGradient>
<linearGradient id="paint7_linear_502_970" x1="567.962" y1="351.114" x2="563.491" y2="360.417" gradientUnits="userSpaceOnUse">
<stop stop-color="#F5F5F5" style="stop-color:#F5F5F5;stop-color:color(display-p3 0.9608 0.9608 0.9608);stop-opacity:1;"/>
<stop offset="1" stop-color="#BDBDBD" style="stop-color:#BDBDBD;stop-color:color(display-p3 0.7412 0.7412 0.7412);stop-opacity:1;"/>
</linearGradient>
<linearGradient id="paint8_linear_502_970" x1="552.083" y1="430.057" x2="547.611" y2="439.36" gradientUnits="userSpaceOnUse">
<stop stop-color="#F5F5F5" style="stop-color:#F5F5F5;stop-color:color(display-p3 0.9608 0.9608 0.9608);stop-opacity:1;"/>
<stop offset="1" stop-color="#BDBDBD" style="stop-color:#BDBDBD;stop-color:color(display-p3 0.7412 0.7412 0.7412);stop-opacity:1;"/>
</linearGradient>
<linearGradient id="paint9_linear_502_970" x1="647.059" y1="281.919" x2="657.462" y2="284.077" gradientUnits="userSpaceOnUse">
<stop stop-color="#F5F5F5" style="stop-color:#F5F5F5;stop-color:color(display-p3 0.9608 0.9608 0.9608);stop-opacity:1;"/>
<stop offset="1" stop-color="#BDBDBD" style="stop-color:#BDBDBD;stop-color:color(display-p3 0.7412 0.7412 0.7412);stop-opacity:1;"/>
</linearGradient>
</defs>
</svg>
