<svg width="20" height="20" viewBox="0 0 20 20" fill="none" xmlns="http://www.w3.org/2000/svg">
<g opacity="0.3" clip-path="url(#clip0_430_8527)">
<path d="M19.6234 7.66675L10.2484 0.291748C10.0817 0.166748 9.87339 0.166748 9.74839 0.291748L0.373388 7.66675C0.248388 7.79175 0.165055 7.95841 0.248388 8.12508C0.290055 8.29175 0.456721 8.41675 0.623388 8.41675H2.12339V19.3751C2.12339 19.6251 2.29005 19.7917 2.54005 19.7917H17.4151C17.6651 19.7917 17.8317 19.6251 17.8317 19.3751V8.41675H19.3317C19.4984 8.41675 19.6651 8.29175 19.7067 8.12508C19.8317 7.95841 19.7901 7.75008 19.6234 7.66675ZM14.2067 12.7084H13.3734V10.9167C13.3734 10.4167 12.9567 10.0417 12.4984 10.0417C12.0401 10.0417 11.6234 10.4584 11.6234 10.9167V12.2917H12.4984C12.7484 12.2917 12.9151 12.4584 12.9151 12.7084V17.7501C12.9151 18.0001 12.7484 18.1667 12.4984 18.1667H7.49839C7.24839 18.1667 7.08172 18.0001 7.08172 17.7501V12.7084C7.08172 12.4584 7.24839 12.2917 7.49839 12.2917H10.7901V10.9167C10.7901 9.95842 11.5401 9.20841 12.4984 9.20841C13.4567 9.20841 14.2067 9.95842 14.2067 10.9167V12.7084Z" fill="#0F0F0F" style="fill:#0F0F0F;fill:color(display-p3 0.0596 0.0596 0.0596);fill-opacity:1;"/>
<path d="M9.16406 14.7917H10.8307V15.6251H9.16406V14.7917Z" fill="#0F0F0F" style="fill:#0F0F0F;fill:color(display-p3 0.0596 0.0596 0.0596);fill-opacity:1;"/>
</g>
<defs>
<clipPath id="clip0_430_8527">
<rect width="20" height="20" fill="white" style="fill:white;fill-opacity:1;"/>
</clipPath>
</defs>
</svg>
