<svg width="25" height="25" viewBox="0 0 25 25" fill="none" xmlns="http://www.w3.org/2000/svg">
<path d="M12.5017 1.78613V8.92899C12.5017 9.40259 12.6898 9.85679 13.0247 10.1917C13.3596 10.5266 13.8138 10.7147 14.2874 10.7147H21.4294L21.4302 10.7843V21.0718C21.4302 21.6402 21.2045 22.1852 20.8026 22.5871C20.4008 22.9889 19.8557 23.2147 19.2874 23.2147H11.0695C11.1308 23.0016 11.1618 22.7784 11.1624 22.5451V22.3218C11.7544 22.3218 12.3221 22.0867 12.7408 21.6681C13.1594 21.2495 13.3945 20.6817 13.3945 20.0897V16.9647C13.3947 16.3316 13.1706 15.7188 12.762 15.2352C12.3534 14.7515 11.7867 14.4283 11.1624 14.3227V14.0629C11.1624 13.7405 11.0989 13.4212 10.9755 13.1233C10.8521 12.8254 10.6712 12.5547 10.4432 12.3267C10.2152 12.0987 9.94455 11.9179 9.64666 11.7945C9.34876 11.6711 9.02947 11.6076 8.70703 11.6076H4.68917C4.28739 11.6076 3.90792 11.704 3.5731 11.8754V3.92899C3.5731 3.36067 3.79887 2.81562 4.20073 2.41376C4.60259 2.0119 5.14764 1.78613 5.71596 1.78613H12.5017ZM13.841 2.21024V8.92899C13.841 9.04739 13.888 9.16094 13.9717 9.24466C14.0554 9.32838 14.169 9.37542 14.2874 9.37542H20.9856C20.9031 9.25938 20.8114 9.1501 20.7115 9.04863L14.0767 2.41381C14.0031 2.34033 13.9244 2.27229 13.841 2.21024ZM4.68917 12.5004C4.27477 12.5004 3.87735 12.665 3.58432 12.9581C3.29129 13.2511 3.12667 13.6485 3.12667 14.0629V15.179H2.68025C2.20664 15.179 1.75244 15.3671 1.41755 15.702C1.08267 16.0369 0.894531 16.4911 0.894531 16.9647V20.0897C0.894531 20.4449 1.03563 20.7856 1.2868 21.0367C1.53796 21.2879 1.87862 21.429 2.23382 21.429H3.12667V22.5451C3.12667 23.4076 3.82667 24.1076 4.68917 24.1076H8.70703C9.12143 24.1076 9.51886 23.9429 9.81189 23.6499C10.1049 23.3569 10.2695 22.9595 10.2695 22.5451V21.429H11.1624C11.5176 21.429 11.8582 21.2879 12.1094 21.0367C12.3606 20.7856 12.5017 20.4449 12.5017 20.0897V16.9647C12.5017 16.4911 12.3135 16.0369 11.9787 15.702C11.6438 15.3671 11.1896 15.179 10.716 15.179H10.2695V14.0629C10.2695 13.6485 10.1049 13.2511 9.81189 12.9581C9.51886 12.665 9.12143 12.5004 8.70703 12.5004H4.68917ZM4.46596 15.179V14.0629C4.46596 14.0037 4.48948 13.9469 4.53134 13.9051C4.5732 13.8632 4.62997 13.8397 4.68917 13.8397H8.70703C8.76623 13.8397 8.82301 13.8632 8.86487 13.9051C8.90673 13.9469 8.93025 14.0037 8.93025 14.0629V15.179H4.46596ZM4.46596 20.3129C4.46596 20.2537 4.48948 20.1969 4.53134 20.1551C4.5732 20.1132 4.62997 20.0897 4.68917 20.0897H8.70703C8.76623 20.0897 8.82301 20.1132 8.86487 20.1551C8.90673 20.1969 8.93025 20.2537 8.93025 20.3129V22.5451C8.93025 22.6043 8.90673 22.661 8.86487 22.7029C8.82301 22.7448 8.76623 22.7683 8.70703 22.7683H4.68917C4.62997 22.7683 4.5732 22.7448 4.53134 22.7029C4.48948 22.661 4.46596 22.6043 4.46596 22.5451V20.3129Z" fill="#305487" style="fill:#305487;fill:color(display-p3 0.1882 0.3294 0.5294);fill-opacity:1;"/>
</svg>
