<svg width="25" height="25" viewBox="0 0 25 25" fill="none" xmlns="http://www.w3.org/2000/svg">
<path d="M19.1311 5.87054C18.8409 5.58022 18.4964 5.34992 18.1171 5.1928C17.7379 5.03567 17.3315 4.9548 16.921 4.9548C16.5105 4.9548 16.104 5.03567 15.7248 5.1928C15.3456 5.34992 15.001 5.58022 14.7108 5.87054L11.3967 9.18773L9.18737 6.97523L12.5014 3.66273C13.0818 3.08233 13.7708 2.62193 14.5291 2.30782C15.2874 1.9937 16.1002 1.83203 16.921 1.83203C17.7418 1.83203 18.5545 1.9937 19.3128 2.30782C20.0711 2.62193 20.7601 3.08233 21.3405 3.66273L22.3046 4.90648C23.0086 6.09987 23.296 7.49337 23.1218 8.86794C22.9476 10.2425 22.3215 11.5202 21.3421 12.5002L18.028 15.8143L15.8171 13.6049L19.1327 10.2909C19.423 10.0007 19.6533 9.6561 19.8104 9.27688C19.9676 8.89765 20.0484 8.49118 20.0484 8.0807C20.0484 7.67021 19.9676 7.26374 19.8104 6.88452C19.6533 6.50529 19.423 6.16074 19.1327 5.87054H19.1311ZM5.87175 19.1299C6.16195 19.4202 6.5065 19.6505 6.88573 19.8077C7.26495 19.9648 7.67142 20.0457 8.08191 20.0457C8.49239 20.0457 8.89886 19.9648 9.27808 19.8077C9.65731 19.6505 10.0019 19.4202 10.2921 19.1299L13.6061 15.8143L15.8155 18.0252L12.5014 21.3362C11.9211 21.9166 11.2321 22.377 10.4738 22.6911C9.71545 23.0052 8.90269 23.1669 8.08191 23.1669C7.26112 23.1669 6.44837 23.0052 5.69006 22.6911C4.93175 22.377 4.24274 21.9166 3.66237 21.3362L2.69831 20.0924C1.99471 18.8992 1.70745 17.506 1.88167 16.1318C2.05589 14.7576 2.68171 13.4801 3.66081 12.5002L6.97487 9.18617L9.18894 11.3955L5.87175 14.7096C5.58143 14.9998 5.35113 15.3444 5.19401 15.7236C5.03688 16.1028 4.95601 16.5093 4.95601 16.9198C4.95601 17.3302 5.03688 17.7367 5.19401 18.1159C5.35113 18.4952 5.58143 18.8397 5.87175 19.1299Z" fill="#305487" style="fill:#305487;fill:color(display-p3 0.1882 0.3294 0.5294);fill-opacity:1;"/>
<path d="M16.9195 10.2904L14.7102 8.08105L8.08203 14.7092L10.2914 16.9186L16.9195 10.2904Z" fill="#305487" style="fill:#305487;fill:color(display-p3 0.1882 0.3294 0.5294);fill-opacity:1;"/>
</svg>
