<svg width="20" height="20" viewBox="0 0 20 20" fill="none" xmlns="http://www.w3.org/2000/svg">
<g opacity="0.3" clip-path="url(#clip0_430_8120)">
<path d="M10 4.375C11.0355 4.375 11.875 3.53553 11.875 2.5C11.875 1.46447 11.0355 0.625 10 0.625C8.96447 0.625 8.125 1.46447 8.125 2.5C8.125 3.53553 8.96447 4.375 10 4.375Z" fill="#0F0F0F" style="fill:#0F0F0F;fill:color(display-p3 0.0596 0.0596 0.0596);fill-opacity:1;"/>
<path d="M8.27969 5.10625C7.93029 4.86932 7.62911 4.56814 7.39219 4.21875L4.74219 6.875H6.50469L8.27969 5.10625Z" fill="#0F0F0F" style="fill:#0F0F0F;fill:color(display-p3 0.0596 0.0596 0.0596);fill-opacity:1;"/>
<path d="M13.4938 6.875H15.2562L12.6063 4.21875C12.3693 4.56814 12.0681 4.86932 11.7188 5.10625L13.4938 6.875Z" fill="#0F0F0F" style="fill:#0F0F0F;fill:color(display-p3 0.0596 0.0596 0.0596);fill-opacity:1;"/>
<path d="M14.8266 12.7688H14.6328V14.7375H14.7328C15.4203 14.7375 15.7141 14.4375 15.7141 13.7375C15.7141 13.0375 15.4453 12.7688 14.8266 12.7688Z" fill="#0F0F0F" style="fill:#0F0F0F;fill:color(display-p3 0.0596 0.0596 0.0596);fill-opacity:1;"/>
<path d="M8.12475 12.7251C8.02214 12.7132 7.91819 12.727 7.82221 12.7652C7.72623 12.8034 7.64121 12.8647 7.57475 12.9438C7.41281 13.1806 7.3317 13.4634 7.3435 13.7501C7.32247 14.0333 7.39255 14.3158 7.5435 14.5563C7.60935 14.6344 7.69335 14.6952 7.78815 14.7334C7.88294 14.7715 7.98564 14.7858 8.08725 14.7751C8.18785 14.7848 8.28931 14.7699 8.38293 14.7318C8.47654 14.6937 8.55952 14.6335 8.62475 14.5563C8.77737 14.3165 8.84759 14.0334 8.82475 13.7501C8.8455 13.4677 8.77778 13.1859 8.631 12.9438C8.56897 12.8711 8.49107 12.8135 8.40331 12.7756C8.31554 12.7377 8.22025 12.7204 8.12475 12.7251Z" fill="#0F0F0F" style="fill:#0F0F0F;fill:color(display-p3 0.0596 0.0596 0.0596);fill-opacity:1;"/>
<path d="M18.75 8.125H1.25C1.08424 8.125 0.925268 8.19085 0.808058 8.30806C0.690848 8.42527 0.625 8.58424 0.625 8.75V18.75C0.625 18.9158 0.690848 19.0747 0.808058 19.1919C0.925268 19.3092 1.08424 19.375 1.25 19.375H18.75C18.9158 19.375 19.0747 19.3092 19.1919 19.1919C19.3092 19.0747 19.375 18.9158 19.375 18.75V8.75C19.375 8.58424 19.3092 8.42527 19.1919 8.30806C19.0747 8.19085 18.9158 8.125 18.75 8.125ZM5.5 15.5625C5.17265 15.7963 4.77701 15.915 4.375 15.9C3.98637 15.9118 3.59998 15.837 3.24375 15.6813C3.19161 15.6549 3.14771 15.6147 3.11685 15.5651C3.08598 15.5155 3.06935 15.4584 3.06875 15.4V14.85C3.06892 14.7969 3.08211 14.7446 3.10717 14.6977C3.13223 14.6509 3.1684 14.6109 3.2125 14.5813C3.25866 14.5566 3.31018 14.5438 3.3625 14.5438C3.41482 14.5438 3.46634 14.5566 3.5125 14.5813C3.66029 14.6521 3.81538 14.7066 3.975 14.7438C4.11817 14.7794 4.26498 14.7982 4.4125 14.8C4.625 14.8 4.70625 14.7562 4.725 14.7375C4.74082 14.724 4.75353 14.7072 4.76224 14.6884C4.77096 14.6695 4.77547 14.6489 4.77547 14.6281C4.77547 14.6073 4.77096 14.5868 4.76224 14.5679C4.75353 14.549 4.74082 14.5322 4.725 14.5187C4.564 14.4004 4.38448 14.3096 4.19375 14.25C3.87944 14.1374 3.59807 13.9484 3.375 13.7C3.19648 13.4633 3.10787 13.1709 3.125 12.875C3.12031 12.6952 3.15672 12.5168 3.23145 12.3532C3.30619 12.1897 3.41728 12.0454 3.55625 11.9313C3.88175 11.7376 4.25152 11.6307 4.63016 11.6208C5.0088 11.611 5.38363 11.6985 5.71875 11.875C5.79221 11.908 5.85044 11.9676 5.88175 12.0418C5.91306 12.116 5.91511 12.1993 5.8875 12.275L5.7 12.75C5.68499 12.789 5.66232 12.8245 5.63334 12.8546C5.60436 12.8846 5.56964 12.9086 5.53125 12.925C5.45295 12.956 5.3658 12.956 5.2875 12.925C5.05807 12.8179 4.80932 12.7584 4.55625 12.75C4.47786 12.7426 4.39914 12.7601 4.33125 12.8C4.31776 12.8099 4.30716 12.8232 4.30057 12.8386C4.29397 12.854 4.29162 12.8709 4.29375 12.8875C4.28565 12.9118 4.28565 12.9382 4.29375 12.9625C4.31639 12.9997 4.34882 13.03 4.3875 13.05C4.52577 13.1297 4.66994 13.1986 4.81875 13.2562C5.03989 13.3458 5.24967 13.4612 5.44375 13.6C5.59355 13.715 5.71535 13.8624 5.8 14.0313C5.87957 14.2058 5.9201 14.3957 5.91875 14.5875C5.92474 14.7708 5.89034 14.9531 5.81797 15.1216C5.7456 15.2901 5.63704 15.4406 5.5 15.5625ZM9.55625 15.3125C9.36903 15.5115 9.14057 15.6672 8.88687 15.7687C8.63316 15.8702 8.36034 15.915 8.0875 15.9C7.81411 15.9167 7.54037 15.8734 7.28554 15.7729C7.03071 15.6725 6.80098 15.5175 6.6125 15.3188C6.25295 14.8775 6.07028 14.3184 6.1 13.75C6.06644 13.1801 6.25202 12.6188 6.61875 12.1812C6.81199 11.9801 7.04704 11.8237 7.3073 11.7233C7.56756 11.6229 7.8467 11.5808 8.125 11.6C8.39633 11.5851 8.66766 11.6294 8.92019 11.7298C9.17271 11.8301 9.40041 11.9842 9.5875 12.1812C9.93912 12.6252 10.1109 13.1852 10.0688 13.75C10.0981 14.3164 9.91539 14.8735 9.55625 15.3125ZM13.1812 15.5375C13.1812 15.6204 13.1483 15.6999 13.0897 15.7585C13.0311 15.8171 12.9516 15.85 12.8687 15.85H10.775C10.6921 15.85 10.6126 15.8171 10.554 15.7585C10.4954 15.6999 10.4625 15.6204 10.4625 15.5375V11.9687C10.4625 11.8859 10.4954 11.8064 10.554 11.7478C10.6126 11.6892 10.6921 11.6562 10.775 11.6562H11.3562C11.4391 11.6562 11.5186 11.6892 11.5772 11.7478C11.6358 11.8064 11.6687 11.8859 11.6687 11.9687V14.725H12.8687C12.9516 14.725 13.0311 14.7579 13.0897 14.8165C13.1483 14.8751 13.1812 14.9546 13.1812 15.0375V15.5375ZM16.3625 15.3C15.9104 15.6876 15.3257 15.8847 14.7312 15.85H13.75C13.6671 15.85 13.5876 15.8171 13.529 15.7585C13.4704 15.6999 13.4375 15.6204 13.4375 15.5375V11.9687C13.4375 11.8859 13.4704 11.8064 13.529 11.7478C13.5876 11.6892 13.6671 11.6562 13.75 11.6562H14.85C15.131 11.6405 15.4123 11.681 15.6774 11.7755C15.9425 11.8699 16.186 12.0164 16.3937 12.2063C16.5894 12.4103 16.74 12.6531 16.8358 12.9191C16.9316 13.185 16.9705 13.4681 16.95 13.75C16.962 14.0347 16.9161 14.3188 16.8151 14.5852C16.7142 14.8516 16.5602 15.0948 16.3625 15.3Z" fill="#0F0F0F" style="fill:#0F0F0F;fill:color(display-p3 0.0596 0.0596 0.0596);fill-opacity:1;"/>
</g>
<defs>
<clipPath id="clip0_430_8120">
<rect width="20" height="20" fill="white" style="fill:white;fill-opacity:1;"/>
</clipPath>
</defs>
</svg>
