<svg width="20" height="20" viewBox="0 0 20 20" fill="none" xmlns="http://www.w3.org/2000/svg">
<g opacity="0.2">
<path d="M14.2948 7.55552L12.3761 7.29286C11.8729 7.22396 11.4359 6.92192 11.2069 6.48485L10.3488 4.84692C10.2127 4.5872 9.78508 4.58712 9.64898 4.84692L8.7909 6.48485C8.56195 6.92192 8.12488 7.22396 7.62175 7.29286L5.703 7.55552C5.4073 7.59603 5.26843 7.90364 5.48281 8.10048L6.87121 9.37548C7.24871 9.72212 7.42023 10.2248 7.33004 10.7201L7.00226 12.5203C6.95418 12.7845 7.28851 12.9931 7.57172 12.8527L9.28789 12.0027C9.733 11.7822 10.2646 11.7822 10.7098 12.0027L12.426 12.8527C12.7077 12.9921 13.0439 12.7861 12.9954 12.5203L12.6677 10.72C12.5775 10.2247 12.7491 9.72212 13.1265 9.37548L14.5149 8.10052C14.7293 7.90368 14.5906 7.59603 14.2948 7.55552Z" fill="#0F0F0F" style="fill:#0F0F0F;fill:color(display-p3 0.0596 0.0596 0.0596);fill-opacity:1;"/>
<path d="M17.5667 0H2.43359C1.89512 0 1.45703 0.438086 1.45703 0.976562V18.6323C1.45703 19.0947 1.68797 19.5221 2.07473 19.7757C2.30148 19.9243 2.5616 20 2.82355 20C3.0084 20 3.19418 19.9623 3.36965 19.8859L9.92227 17.0352C9.9718 17.0136 10.0286 17.0136 10.078 17.0352L16.6306 19.8859C17.0548 20.0704 17.5389 20.0292 17.9256 19.7757C18.3123 19.5222 18.5433 19.0947 18.5433 18.6323V0.976562C18.5433 0.438086 18.1052 0 17.5667 0ZM15.3089 8.96367L13.9205 10.2386C13.84 10.3126 13.8041 10.4116 13.822 10.5101L14.1498 12.3104C14.3706 13.5237 13.0561 14.472 11.9073 13.9027L10.1911 13.0528C10.0734 12.9945 9.92711 12.9945 9.80937 13.0528L8.09312 13.9027C6.94281 14.4726 5.63023 13.5208 5.85059 12.3104L6.17836 10.5101C6.19629 10.4116 6.16039 10.3126 6.0798 10.2386L4.69141 8.96363C3.75379 8.10273 4.25551 6.57098 5.54531 6.39441L7.46402 6.13176C7.59223 6.11422 7.70066 6.04285 7.75406 5.94098L8.61215 4.30305C9.18656 3.2066 10.8137 3.2066 11.3882 4.30305L12.2463 5.94098C12.2996 6.04285 12.4081 6.11422 12.5363 6.13176L14.455 6.39441C15.7441 6.57086 16.2472 8.10207 15.3089 8.96367Z" fill="#0F0F0F" style="fill:#0F0F0F;fill:color(display-p3 0.0596 0.0596 0.0596);fill-opacity:1;"/>
</g>
</svg>
